<svg xmlns="http://www.w3.org/2000/svg" viewBox="150 105 830 830" role="img" aria-labelledby="t">
  <title id="t">Construir o Futuro</title>
  <defs>
    <linearGradient id="gAz" x1="0" y1="1" x2="1" y2="0"><stop offset="0" stop-color="#034C86"/><stop offset="1" stop-color="#0162A6"/></linearGradient>
    <linearGradient id="gPe" x1="0" y1="0" x2="0" y2="1"><stop offset="0" stop-color="#03B0B8"/><stop offset="1" stop-color="#038E9E"/></linearGradient>
    <linearGradient id="gOu" x1="0" y1="0" x2="0" y2="1"><stop offset="0" stop-color="#C98A02"/><stop offset="1" stop-color="#A06602"/></linearGradient>
  </defs>
  <path d="M740 398 560 505 718 603 828 543" fill="none" stroke="#E39A06" stroke-width="4" stroke-dasharray="12 10"/>
  <polygon points="167,323 409,466 291,539 293,810 167,734" fill="url(#gPe)"/>
  <polygon points="291,539 409,466 409,588 293,657" fill="#02727C"/>
  <polygon points="193,308 520,123 669,212 482,321 567,372 435,450" fill="url(#gAz)"/>
  <polygon points="482,321 669,212 669,286 545,358" fill="#013764"/>
  <polygon points="435,450 567,372 567,493 435,572" fill="#024376"/>
  <polygon points="436,601 554,533 700,623 582,690" fill="#015FA0"/>
  <polygon points="319,671 411,617 556,706 465,760" fill="#0161A3"/>
  <polygon points="319,671 465,760 465,915 319,826" fill="#014881"/>
  <polygon points="465,760 700,623 700,778 465,915" fill="#01325B"/>
  <polygon points="697,302 828,225 958,305 828,383" fill="#EBAB04"/>
  <polygon points="697,302 828,383 828,546 777,515 777,413 697,364" fill="url(#gOu)"/>
  <polygon points="828,383 958,305 958,468 828,546" fill="#CB8B02"/>
</svg>
